<svg width="22" height="23" viewBox="0 0 22 23" fill="none" xmlns="http://www.w3.org/2000/svg">
<g id="settings">
<path id="icon" d="M8.47926 20.6668L8.1126 17.7335C7.91399 17.6571 7.72683 17.5654 7.55114 17.4585C7.37544 17.3516 7.20357 17.237 7.03551 17.1147L4.30843 18.2606L1.7876 13.9064L4.14801 12.1189C4.13274 12.012 4.1251 11.9088 4.1251 11.8095V11.1908C4.1251 11.0915 4.13274 10.9884 4.14801 10.8814L1.7876 9.09391L4.30843 4.73975L7.03551 5.88558C7.20357 5.76336 7.37926 5.64877 7.5626 5.54183C7.74593 5.43488 7.92926 5.34322 8.1126 5.26683L8.47926 2.3335H13.5209L13.8876 5.26683C14.0862 5.34322 14.2734 5.43488 14.4491 5.54183C14.6248 5.64877 14.7966 5.76336 14.9647 5.88558L17.6918 4.73975L20.2126 9.09391L17.8522 10.8814C17.8675 10.9884 17.8751 11.0915 17.8751 11.1908V11.8095C17.8751 11.9088 17.8598 12.012 17.8293 12.1189L20.1897 13.9064L17.6688 18.2606L14.9647 17.1147C14.7966 17.237 14.6209 17.3516 14.4376 17.4585C14.2543 17.5654 14.0709 17.6571 13.8876 17.7335L13.5209 20.6668H8.47926ZM10.0834 18.8335H11.8938L12.2147 16.4043C12.6883 16.2821 13.1275 16.1026 13.5324 15.8658C13.9373 15.629 14.3077 15.3425 14.6438 15.0064L16.9126 15.946L17.8063 14.3877L15.8355 12.8981C15.9119 12.6842 15.9654 12.4588 15.9959 12.222C16.0265 11.9852 16.0418 11.7446 16.0418 11.5002C16.0418 11.2557 16.0265 11.0151 15.9959 10.7783C15.9654 10.5415 15.9119 10.3161 15.8355 10.1022L17.8063 8.61266L16.9126 7.05433L14.6438 8.01683C14.3077 7.66544 13.9373 7.37134 13.5324 7.13454C13.1275 6.89773 12.6883 6.71822 12.2147 6.596L11.9168 4.16683H10.1063L9.78551 6.596C9.3119 6.71822 8.87267 6.89773 8.46781 7.13454C8.06294 7.37134 7.69246 7.6578 7.35635 7.99391L5.0876 7.05433L4.19385 8.61266L6.16468 10.0793C6.08829 10.3085 6.03482 10.5377 6.00426 10.7668C5.97371 10.996 5.95843 11.2404 5.95843 11.5002C5.95843 11.7446 5.97371 11.9814 6.00426 12.2106C6.03482 12.4397 6.08829 12.6689 6.16468 12.8981L4.19385 14.3877L5.0876 15.946L7.35635 14.9835C7.69246 15.3349 8.06294 15.629 8.46781 15.8658C8.87267 16.1026 9.3119 16.2821 9.78551 16.4043L10.0834 18.8335ZM11.0459 14.7085C11.932 14.7085 12.6883 14.3953 13.3147 13.7689C13.9411 13.1425 14.2543 12.3863 14.2543 11.5002C14.2543 10.6141 13.9411 9.8578 13.3147 9.23141C12.6883 8.60502 11.932 8.29183 11.0459 8.29183C10.1445 8.29183 9.38447 8.60502 8.76572 9.23141C8.14697 9.8578 7.8376 10.6141 7.8376 11.5002C7.8376 12.3863 8.14697 13.1425 8.76572 13.7689C9.38447 14.3953 10.1445 14.7085 11.0459 14.7085Z" fill="#1D1B20"/>
</g>
</svg>
